<svg xmlns="http://www.w3.org/2000/svg" version="1.1" xmlns:xlink="http://www.w3.org/1999/xlink" xmlns:svgjs="http://svgjs.dev/svgjs" width="2000" height="1247" viewBox="0 0 2000 1247"><g transform="matrix(1,0,0,1,-1.2121212121212466,0.504858299595071)"><svg viewBox="0 0 396 247" data-background-color="#102e44" preserveAspectRatio="xMidYMid meet" height="1247" width="2000" xmlns="http://www.w3.org/2000/svg" xmlns:xlink="http://www.w3.org/1999/xlink"><g id="tight-bounds" transform="matrix(1,0,0,1,0.2400000000000091,-0.09999999999999432)"><svg viewBox="0 0 395.52 247.2" height="247.2" width="395.52"><g><svg></svg></g><g><svg viewBox="0 0 395.52 247.2" height="247.2" width="395.52"><mask id="96b5d768-51de-4d34-b638-651976a98cf8"><rect width="640" height="400" fill="white"></rect><rect width="348.05760000000004" height="72.38696934712183" fill="black" y="87.40651532643908" x="23.731199999999973" id="transform-me"></rect></mask><g transform="matrix(1,0,0,1,39.55199999999999,96.62303380798274)"><svg viewBox="0 0 316.416 53.953932384034516" height="53.953932384034516" width="316.416"><g><svg viewBox="0 0 393.52298124136075 67.10189219717101" height="53.953932384034516" width="316.416"><g transform="matrix(1,0,0,1,0,9.273850513501927)"><svg viewBox="0 0 316.416 48.55419117016716" height="48.55419117016716" width="316.416"><g id="textblocktransform"><svg viewBox="0 0 316.416 48.55419117016716" height="48.55419117016716" width="316.416" id="textblock"><g><svg viewBox="0 0 316.416 48.55419117016716" height="48.55419117016716" width="316.416"><g transform="matrix(1,0,0,1,0,0)"><svg width="316.416" viewBox="2.65 -35.15 233.28 35.8" height="48.55419117016716" data-palette-color="#ffffff"><path d="M14.1-35.1L14.1-35.1Q16.6-35.05 19.28-34.85 21.95-34.65 24.6-34.05L24.6-34.05 24.25-30.5Q22.1-30.6 19.43-30.65 16.75-30.7 14.25-30.7L14.25-30.7Q12.5-30.7 11.25-30.6 10-30.5 9.2-30.05 8.4-29.6 8.03-28.6 7.65-27.6 7.65-25.85L7.65-25.85Q7.65-23.2 8.65-22.13 9.65-21.05 11.9-20.5L11.9-20.5 18.85-18.65Q22.85-17.65 24.35-15.28 25.85-12.9 25.85-8.9L25.85-8.9Q25.85-5.9 25.18-4.05 24.5-2.2 23.08-1.2 21.65-0.2 19.4 0.2 17.15 0.6 14.05 0.6L14.05 0.6Q12.35 0.6 9.55 0.45 6.75 0.3 3.1-0.4L3.1-0.4 3.45-4.05Q6.4-3.95 8.28-3.88 10.15-3.8 11.5-3.8 12.85-3.8 14.2-3.8L14.2-3.8Q16.7-3.8 18.15-4.17 19.6-4.55 20.2-5.68 20.8-6.8 20.8-8.95L20.8-8.95Q20.8-10.8 20.38-11.85 19.95-12.9 19.03-13.43 18.1-13.95 16.65-14.3L16.65-14.3 9.5-16.25Q5.75-17.3 4.2-19.65 2.65-22 2.65-25.9L2.65-25.9Q2.65-28.9 3.33-30.75 4-32.6 5.4-33.52 6.8-34.45 8.95-34.77 11.1-35.1 14.1-35.1ZM39-34.55L39-34.55Q41.5-34.55 44.1-34.55 46.7-34.55 49.22-34.48 51.75-34.4 54.05-34.25L54.05-34.25 53.85-30.4 40.1-30.4Q38.6-30.4 37.9-29.65 37.2-28.9 37.2-27.25L37.2-27.25 37.2-7.25Q37.2-5.6 37.9-4.83 38.6-4.05 40.1-4.05L40.1-4.05 53.85-4.05 54.05-0.25Q51.75-0.1 49.22-0.05 46.7 0 44.1 0.03 41.5 0.05 39 0.05L39 0.05Q35.9 0.05 34.07-1.63 32.25-3.3 32.2-6.1L32.2-6.1 32.2-28.4Q32.25-31.25 34.07-32.9 35.9-34.55 39-34.55ZM33.1-16.25L33.1-20.1 51.9-20.1 51.9-16.25 33.1-16.25ZM72.8-34.95L72.8-34.95Q76.9-34.95 79.42-34.08 81.95-33.2 83.1-31.03 84.25-28.85 84.25-24.95L84.25-24.95Q84.25-22.2 83.6-20.35 82.95-18.5 81.57-17.45 80.2-16.4 77.85-16.1L77.85-16.1 77.85-15.85Q78.7-15.65 79.55-15.05 80.4-14.45 81.15-13.43 81.9-12.4 82.25-10.85L82.25-10.85 85.5 0 80.2 0 77.2-10.75Q76.6-12.65 75.55-13.45 74.5-14.25 72.8-14.25L72.8-14.25Q69.65-14.25 67.4-14.28 65.15-14.3 63.62-14.35 62.1-14.4 61.15-14.4L61.15-14.4 61.3-18.4 72.7-18.4Q75.15-18.45 76.55-18.98 77.95-19.5 78.57-20.85 79.2-22.2 79.2-24.65L79.2-24.65Q79.2-27.1 78.57-28.43 77.95-29.75 76.55-30.28 75.15-30.8 72.7-30.8L72.7-30.8Q68.5-30.8 65.45-30.75 62.4-30.7 61.35-30.7L61.35-30.7 60.65-34.5Q62.55-34.7 64.25-34.8 65.95-34.9 67.97-34.93 70-34.95 72.8-34.95ZM60.65-34.5L65.6-34.5 65.6 0 60.65 0 60.65-34.5ZM105.14-35.15L105.14-35.15Q106.99-35.15 108.67-35.05 110.34-34.95 111.92-34.73 113.49-34.5 114.99-34.05L114.99-34.05 114.49-30.35Q112.89-30.5 111.32-30.58 109.74-30.65 108.24-30.68 106.74-30.7 105.34-30.7L105.34-30.7Q102.69-30.7 100.84-30.2 98.99-29.7 97.92-28.25 96.84-26.8 96.34-24.1 95.84-21.4 95.84-17.05L95.84-17.05Q95.84-12.1 96.52-9.2 97.19-6.3 98.77-5 100.34-3.7 102.99-3.7L102.99-3.7Q104.84-3.7 106.34-4.2 107.84-4.7 109.17-5.53 110.49-6.35 111.69-7.2L111.69-7.2 112.34-4.3Q111.49-3.3 109.92-2.13 108.34-0.95 106.24-0.15 104.14 0.65 101.49 0.65L101.49 0.65Q97.64 0.65 95.22-1.25 92.79-3.15 91.67-7.13 90.54-11.1 90.54-17.35L90.54-17.35Q90.54-24.15 91.94-28.05 93.34-31.95 96.54-33.55 99.74-35.15 105.14-35.15ZM111.04-19.95L115.94-19.95 115.94 0 112.29 0 111.49-5.1 111.04-6.2 111.04-19.95ZM123.39-34.5L128.39-34.5 128.39 0 123.39 0 123.39-34.5ZM149.39-35.15L149.39-35.15Q153.19-35.15 155.86-34.25 158.54-33.35 160.14-31.3 161.74-29.25 162.46-25.8 163.19-22.35 163.19-17.25L163.19-17.25Q163.19-12.2 162.46-8.72 161.74-5.25 160.14-3.2 158.54-1.15 155.86-0.25 153.19 0.65 149.39 0.65L149.39 0.65Q145.59 0.65 142.91-0.25 140.24-1.15 138.61-3.2 136.99-5.25 136.24-8.72 135.49-12.2 135.49-17.25L135.49-17.25Q135.49-22.35 136.24-25.8 136.99-29.25 138.61-31.3 140.24-33.35 142.91-34.25 145.59-35.15 149.39-35.15ZM149.39-30.8L149.39-30.8Q146.14-30.8 144.24-29.55 142.34-28.3 141.56-25.38 140.79-22.45 140.79-17.25L140.79-17.25Q140.79-12.1 141.56-9.15 142.34-6.2 144.24-4.95 146.14-3.7 149.39-3.7L149.39-3.7Q152.64-3.7 154.51-4.95 156.39-6.2 157.19-9.15 157.99-12.1 157.99-17.25L157.99-17.25Q157.99-22.45 157.19-25.38 156.39-28.3 154.51-29.55 152.64-30.8 149.39-30.8ZM193.93-35.1L193.93-35.1Q196.18-35.1 197.78-35 199.38-34.9 200.73-34.68 202.08-34.45 203.53-34.05L203.53-34.05 203.03-30.3Q201.53-30.45 200.23-30.53 198.93-30.6 197.46-30.65 195.98-30.7 193.93-30.7L193.93-30.7Q190.73-30.7 188.88-29.45 187.03-28.2 186.26-25.28 185.48-22.35 185.48-17.25L185.48-17.25Q185.48-12.15 186.26-9.22 187.03-6.3 188.88-5.05 190.73-3.8 193.93-3.8L193.93-3.8Q197.18-3.8 199.41-3.93 201.63-4.05 203.73-4.35L203.73-4.35 204.23-0.6Q202.03 0.05 199.71 0.33 197.38 0.6 193.93 0.6L193.93 0.6Q188.93 0.6 185.91-1.13 182.88-2.85 181.53-6.75 180.18-10.65 180.18-17.25L180.18-17.25Q180.18-23.85 181.53-27.75 182.88-31.65 185.91-33.38 188.93-35.1 193.93-35.1ZM230.73-34.5L235.93-34.5 225.63-1.4Q225.43-0.85 224.93-0.43 224.43 0 223.78 0L223.78 0 218.83 0Q218.13 0 217.63-0.43 217.13-0.85 216.93-1.4L216.93-1.4 206.68-34.5 211.88-34.5 219.68-7.6Q219.93-6.65 220.18-5.73 220.43-4.8 220.63-3.85L220.63-3.85 221.98-3.85Q222.18-4.8 222.43-5.75 222.68-6.7 222.98-7.65L222.98-7.65 230.73-34.5Z" opacity="1" transform="matrix(1,0,0,1,0,0)" fill="#ffffff" class="wordmark-text-0" data-fill-palette-color="primary" id="text-0"></path></svg></g></svg></g></svg></g></svg></g><g transform="matrix(1,0,0,1,327.87847923468837,0)"><svg viewBox="0 0 65.6445020066724 67.10189219717101" height="67.10189219717101" width="65.6445020066724"><g><svg xmlns="http://www.w3.org/2000/svg" xmlns:xlink="http://www.w3.org/1999/xlink" version="1.1" x="0" y="0" viewBox="3.19501 2.5 62.60998000000001 64" style="enable-background:new 0 0 69 69;" xml:space="preserve" height="67.10189219717101" width="65.6445020066724" class="icon-icon-0" data-fill-palette-color="accent" id="icon-0"><g fill="#b2fcfb" data-fill-palette-color="accent"><path d="M3.195 5.25v58.5c0 1.51 1.23 2.75 2.75 2.75h42.9c1.51 0 2.75-1.24 2.75-2.75V5.25c0-1.52-1.24-2.75-2.75-2.75H5.945C4.425 2.5 3.195 3.73 3.195 5.25zM50.095 5.25v58.5c0 0.69-0.56 1.25-1.25 1.25H5.945c-0.71 0-1.25-0.55-1.25-1.25V5.25c0-0.69 0.56-1.25 1.25-1.25h42.9C49.535 4 50.095 4.56 50.095 5.25z" fill="#b2fcfb" data-fill-palette-color="accent"></path><path d="M46.531 58.592h-7.139c-0.414 0-0.75 0.336-0.75 0.75s0.336 0.75 0.75 0.75h7.139c0.414 0 0.75-0.336 0.75-0.75S46.945 58.592 46.531 58.592z" fill="#b2fcfb" data-fill-palette-color="accent"></path><path d="M35.392 58.592H8.941c-0.414 0-0.75 0.336-0.75 0.75s0.336 0.75 0.75 0.75h26.451c0.414 0 0.75-0.336 0.75-0.75S35.806 58.592 35.392 58.592z" fill="#b2fcfb" data-fill-palette-color="accent"></path><path d="M46.531 52.143H16.591c-0.414 0-0.75 0.336-0.75 0.75s0.336 0.75 0.75 0.75h29.94c0.414 0 0.75-0.336 0.75-0.75S46.945 52.143 46.531 52.143z" fill="#b2fcfb" data-fill-palette-color="accent"></path><path d="M8.941 53.643h3.65c0.414 0 0.75-0.336 0.75-0.75s-0.336-0.75-0.75-0.75h-3.65c-0.414 0-0.75 0.336-0.75 0.75S8.527 53.643 8.941 53.643z" fill="#b2fcfb" data-fill-palette-color="accent"></path><path d="M46.531 45.702H34.491c-0.414 0-0.75 0.336-0.75 0.75s0.336 0.75 0.75 0.75h12.04c0.414 0 0.75-0.336 0.75-0.75S46.945 45.702 46.531 45.702z" fill="#b2fcfb" data-fill-palette-color="accent"></path><path d="M8.941 47.202h21.55c0.414 0 0.75-0.336 0.75-0.75s-0.336-0.75-0.75-0.75H8.941c-0.414 0-0.75 0.336-0.75 0.75S8.527 47.202 8.941 47.202z" fill="#b2fcfb" data-fill-palette-color="accent"></path><path d="M46.531 39.262H26.662c-0.414 0-0.75 0.336-0.75 0.75s0.336 0.75 0.75 0.75h19.869c0.414 0 0.75-0.336 0.75-0.75S46.945 39.262 46.531 39.262z" fill="#b2fcfb" data-fill-palette-color="accent"></path><path d="M8.941 40.762h13.721c0.414 0 0.75-0.336 0.75-0.75s-0.336-0.75-0.75-0.75H8.941c-0.414 0-0.75 0.336-0.75 0.75S8.527 40.762 8.941 40.762z" fill="#b2fcfb" data-fill-palette-color="accent"></path><path d="M46.531 32.813h-9.139c-0.414 0-0.75 0.336-0.75 0.749s0.336 0.75 0.75 0.75h9.139c0.414 0 0.75-0.336 0.75-0.75S46.945 32.813 46.531 32.813z" fill="#b2fcfb" data-fill-palette-color="accent"></path><path d="M8.941 34.313h24.451c0.414 0 0.75-0.336 0.75-0.751s-0.336-0.75-0.75-0.75H8.941c-0.414 0-0.75 0.336-0.75 0.75S8.527 34.313 8.941 34.313z" fill="#b2fcfb" data-fill-palette-color="accent"></path><path d="M30.943 25.836h15.59c0.414 0 0.75-0.336 0.75-0.75s-0.336-0.75-0.75-0.75H30.943c-0.414 0-0.75 0.336-0.75 0.75S30.529 25.836 30.943 25.836z" fill="#b2fcfb" data-fill-palette-color="accent"></path><path d="M30.943 20.089h15.59c0.414 0 0.75-0.336 0.75-0.75s-0.336-0.75-0.75-0.75H30.943c-0.414 0-0.75 0.336-0.75 0.75S30.529 20.089 30.943 20.089z" fill="#b2fcfb" data-fill-palette-color="accent"></path><path d="M30.943 14.342h15.59c0.414 0 0.75-0.336 0.75-0.75s-0.336-0.75-0.75-0.75H30.943c-0.414 0-0.75 0.336-0.75 0.75S30.529 14.342 30.943 14.342z" fill="#b2fcfb" data-fill-palette-color="accent"></path><path d="M17.925 29.41c5.656 0 10.08-4.614 10.08-10.07 0-5.55-4.52-10.08-10.08-10.08-5.55 0-10.07 4.53-10.07 10.08C7.855 24.861 12.332 29.41 17.925 29.41zM17.925 28.63c-2.935 0-5.674-1.481-6.95-3.14 0.8-0.96 1.99-1.53 3.25-1.53H15.745c0.11 1.11 1.04 1.99 2.19 1.99 1.132 0 2.07-0.867 2.18-1.99h1.52c1.27 0 2.46 0.57 3.25 1.53C22.905 27.251 21.401 28.63 17.925 28.63zM14.985 18.99c0.79-5.213 2.609-1.077 3.04-2.37 0.07-0.105 0.047-0.113 0.1-0.28 0.508 0.396 1.438 0.861 1.61 0.26 0.627 0.627 0.994 1.524 1.14 2.4 0 0.06 0 0.13-0.01 0.19v0.04c-0.353 4.788-5.583 4.468-5.87 0.02C14.996 19.15 15.002 19.09 14.985 18.99zM14.575 17.22H14.565c-0.02-0.01-0.05-0.02-0.07-0.03-0.281-2.385 0.733-3.98 3.44-3.98 2.653 0 3.591 1.393 3.44 3.98-0.08 0.02-0.15 0.06-0.22 0.1 0 0 0-0.01-0.01-0.01-0.089-0.204-0.28-0.51-0.31-0.54-0.34-0.596-1.187-1.29-1.32-1.29-0.101-0.05-0.315-0.002-0.37 0.08-0.176 0.118-0.132 0.344-0.15 0.45-0.817-0.44-1.109-1.322-1.54-0.11C15.998 15.18 15.058 15.337 14.575 17.22zM17.935 23.51c0.49 0 0.96-0.12 1.38-0.33 0.01-0.01 0.02-0.01 0.03-0.02v0.02V23.75c0 0.797-0.645 1.42-1.41 1.42-0.808 0-1.42-0.665-1.42-1.42 0-0.086 0-0.524 0-0.59C16.607 23.253 17.302 23.51 17.935 23.51zM8.635 19.34c0-5.12 4.17-9.3 9.29-9.3 5.13 0 9.3 4.18 9.3 9.3 0 2-0.65 3.95-1.85 5.54-0.92-1.07-2.29-1.7-3.74-1.7H20.125V22.62c0.73-0.68 1.26-1.68 1.46-2.85 0.02 0.01 0.03 0.01 0.05 0.01 0.59 0 1.06-0.58 1.06-1.32 0-0.51-0.23-0.94-0.56-1.15 0.388-2.715-0.914-4.88-4.2-4.88-2.82 0-4.25 1.43-4.25 4.25 0 0.21 0.01 0.42 0.04 0.63-0.33 0.21-0.56 0.64-0.56 1.15 0 0.74 0.47 1.32 1.06 1.32 0.02 0 0.04 0 0.06-0.01 0.19 1.17 0.72 2.17 1.45 2.84v0.57h-1.51c-1.43 0-2.8 0.63-3.74 1.69C9.285 23.28 8.635 21.35 8.635 19.34zM21.455 18.08v-0.01c0.216-0.287 0.46-0.011 0.46 0.39 0 0.31-0.15 0.51-0.26 0.54v-0.11C21.595 18.59 21.535 18.34 21.455 18.08zM14.365 18.01c0 0.001-0.08 0.43-0.09 0.5-0.03 0.13-0.05 0.27-0.07 0.41v0.06c0 0.01 0 0.01 0 0.02-0.11-0.03-0.26-0.24-0.26-0.54C13.945 18.14 14.167 17.763 14.365 18.01z" fill="#b2fcfb" data-fill-palette-color="accent"></path><path d="M60.125 5.64c-1.73 0-3.14 1.41-3.14 3.14v2.56c-1.41 0.11-2.53 1.29-2.53 2.74V55.19c0 0.05 0.01 0.11 0.02 0.16 0 0 0 0 0 0.01-0.05 0.2-0.02 0.41 0.1 0.59l4.92 7.62c0.14 0.22 0.38 0.34 0.63 0.34 0.26 0 0.49-0.12 0.63-0.34l4.92-7.62c0.11-0.17 0.15-0.39 0.1-0.58 0-0.01 0-0.01 0-0.01C65.795 55.31 65.805 55.25 65.805 55.19V14.08c0-1.45-1.13-2.63-2.54-2.74v-2.56C63.265 7.05 61.855 5.64 60.125 5.64zM58.485 8.78c0-0.9 0.74-1.64 1.64-1.64 0.91 0 1.64 0.74 1.64 1.64v2.55h-3.28V8.78zM61.315 12.83v13.57c0 0.65-0.53 1.18-1.19 1.18-0.65 0-1.18-0.53-1.18-1.18V12.83H61.315zM61.486 59.173h-2.718L56.685 55.94h6.89L61.486 59.173zM64.305 14.08V54.44h-8.35V14.08c0-0.61 0.44-1.13 1.03-1.22h0.46v13.54c0 1.47 1.2 2.68 2.68 2.68 1.48 0 2.69-1.21 2.69-2.68V12.85c0.25 0.01 0.39 0.01 0.45 0.01C63.855 12.95 64.305 13.46 64.305 14.08z" fill="#b2fcfb" data-fill-palette-color="accent"></path></g></svg></g></svg></g></svg></g></svg></g><g mask="url(#96b5d768-51de-4d34-b638-651976a98cf8)"><g transform="matrix(3.83125, 0, 0, 3.83125, 77.82275706249999, 1)"><svg xmlns="http://www.w3.org/2000/svg" xmlns:xlink="http://www.w3.org/1999/xlink" version="1.1" x="0" y="0" viewBox="3.19501 2.5 62.60998000000001 64" style="enable-background:new 0 0 69 69;" xml:space="preserve" height="64" width="62.60998000000001" class="icon-none" data-fill-palette-color="accent" id="none"><g fill="#b2fcfb" data-fill-palette-color="accent"><path d="M3.195 5.25v58.5c0 1.51 1.23 2.75 2.75 2.75h42.9c1.51 0 2.75-1.24 2.75-2.75V5.25c0-1.52-1.24-2.75-2.75-2.75H5.945C4.425 2.5 3.195 3.73 3.195 5.25zM50.095 5.25v58.5c0 0.69-0.56 1.25-1.25 1.25H5.945c-0.71 0-1.25-0.55-1.25-1.25V5.25c0-0.69 0.56-1.25 1.25-1.25h42.9C49.535 4 50.095 4.56 50.095 5.25z" fill="#b2fcfb" data-fill-palette-color="accent"></path><path d="M46.531 58.592h-7.139c-0.414 0-0.75 0.336-0.75 0.75s0.336 0.75 0.75 0.75h7.139c0.414 0 0.75-0.336 0.75-0.75S46.945 58.592 46.531 58.592z" fill="#b2fcfb" data-fill-palette-color="accent"></path><path d="M35.392 58.592H8.941c-0.414 0-0.75 0.336-0.75 0.75s0.336 0.75 0.75 0.75h26.451c0.414 0 0.75-0.336 0.75-0.75S35.806 58.592 35.392 58.592z" fill="#b2fcfb" data-fill-palette-color="accent"></path><path d="M46.531 52.143H16.591c-0.414 0-0.75 0.336-0.75 0.75s0.336 0.75 0.75 0.75h29.94c0.414 0 0.75-0.336 0.75-0.75S46.945 52.143 46.531 52.143z" fill="#b2fcfb" data-fill-palette-color="accent"></path><path d="M8.941 53.643h3.65c0.414 0 0.75-0.336 0.75-0.75s-0.336-0.75-0.75-0.75h-3.65c-0.414 0-0.75 0.336-0.75 0.75S8.527 53.643 8.941 53.643z" fill="#b2fcfb" data-fill-palette-color="accent"></path><path d="M46.531 45.702H34.491c-0.414 0-0.75 0.336-0.75 0.75s0.336 0.75 0.75 0.75h12.04c0.414 0 0.75-0.336 0.75-0.75S46.945 45.702 46.531 45.702z" fill="#b2fcfb" data-fill-palette-color="accent"></path><path d="M8.941 47.202h21.55c0.414 0 0.75-0.336 0.75-0.75s-0.336-0.75-0.75-0.75H8.941c-0.414 0-0.75 0.336-0.75 0.75S8.527 47.202 8.941 47.202z" fill="#b2fcfb" data-fill-palette-color="accent"></path><path d="M46.531 39.262H26.662c-0.414 0-0.75 0.336-0.75 0.75s0.336 0.75 0.75 0.75h19.869c0.414 0 0.75-0.336 0.75-0.75S46.945 39.262 46.531 39.262z" fill="#b2fcfb" data-fill-palette-color="accent"></path><path d="M8.941 40.762h13.721c0.414 0 0.75-0.336 0.75-0.75s-0.336-0.75-0.75-0.75H8.941c-0.414 0-0.75 0.336-0.75 0.75S8.527 40.762 8.941 40.762z" fill="#b2fcfb" data-fill-palette-color="accent"></path><path d="M46.531 32.813h-9.139c-0.414 0-0.75 0.336-0.75 0.749s0.336 0.75 0.75 0.75h9.139c0.414 0 0.75-0.336 0.75-0.75S46.945 32.813 46.531 32.813z" fill="#b2fcfb" data-fill-palette-color="accent"></path><path d="M8.941 34.313h24.451c0.414 0 0.75-0.336 0.75-0.751s-0.336-0.75-0.75-0.75H8.941c-0.414 0-0.75 0.336-0.75 0.75S8.527 34.313 8.941 34.313z" fill="#b2fcfb" data-fill-palette-color="accent"></path><path d="M30.943 25.836h15.59c0.414 0 0.75-0.336 0.75-0.75s-0.336-0.75-0.75-0.75H30.943c-0.414 0-0.75 0.336-0.75 0.75S30.529 25.836 30.943 25.836z" fill="#b2fcfb" data-fill-palette-color="accent"></path><path d="M30.943 20.089h15.59c0.414 0 0.75-0.336 0.75-0.75s-0.336-0.75-0.75-0.75H30.943c-0.414 0-0.75 0.336-0.75 0.75S30.529 20.089 30.943 20.089z" fill="#b2fcfb" data-fill-palette-color="accent"></path><path d="M30.943 14.342h15.59c0.414 0 0.75-0.336 0.75-0.75s-0.336-0.75-0.75-0.75H30.943c-0.414 0-0.75 0.336-0.75 0.75S30.529 14.342 30.943 14.342z" fill="#b2fcfb" data-fill-palette-color="accent"></path><path d="M17.925 29.41c5.656 0 10.08-4.614 10.08-10.07 0-5.55-4.52-10.08-10.08-10.08-5.55 0-10.07 4.53-10.07 10.08C7.855 24.861 12.332 29.41 17.925 29.41zM17.925 28.63c-2.935 0-5.674-1.481-6.95-3.14 0.8-0.96 1.99-1.53 3.25-1.53H15.745c0.11 1.11 1.04 1.99 2.19 1.99 1.132 0 2.07-0.867 2.18-1.99h1.52c1.27 0 2.46 0.57 3.25 1.53C22.905 27.251 21.401 28.63 17.925 28.63zM14.985 18.99c0.79-5.213 2.609-1.077 3.04-2.37 0.07-0.105 0.047-0.113 0.1-0.28 0.508 0.396 1.438 0.861 1.61 0.26 0.627 0.627 0.994 1.524 1.14 2.4 0 0.06 0 0.13-0.01 0.19v0.04c-0.353 4.788-5.583 4.468-5.87 0.02C14.996 19.15 15.002 19.09 14.985 18.99zM14.575 17.22H14.565c-0.02-0.01-0.05-0.02-0.07-0.03-0.281-2.385 0.733-3.98 3.44-3.98 2.653 0 3.591 1.393 3.44 3.98-0.08 0.02-0.15 0.06-0.22 0.1 0 0 0-0.01-0.01-0.01-0.089-0.204-0.28-0.51-0.31-0.54-0.34-0.596-1.187-1.29-1.32-1.29-0.101-0.05-0.315-0.002-0.37 0.08-0.176 0.118-0.132 0.344-0.15 0.45-0.817-0.44-1.109-1.322-1.54-0.11C15.998 15.18 15.058 15.337 14.575 17.22zM17.935 23.51c0.49 0 0.96-0.12 1.38-0.33 0.01-0.01 0.02-0.01 0.03-0.02v0.02V23.75c0 0.797-0.645 1.42-1.41 1.42-0.808 0-1.42-0.665-1.42-1.42 0-0.086 0-0.524 0-0.59C16.607 23.253 17.302 23.51 17.935 23.51zM8.635 19.34c0-5.12 4.17-9.3 9.29-9.3 5.13 0 9.3 4.18 9.3 9.3 0 2-0.65 3.95-1.85 5.54-0.92-1.07-2.29-1.7-3.74-1.7H20.125V22.62c0.73-0.68 1.26-1.68 1.46-2.85 0.02 0.01 0.03 0.01 0.05 0.01 0.59 0 1.06-0.58 1.06-1.32 0-0.51-0.23-0.94-0.56-1.15 0.388-2.715-0.914-4.88-4.2-4.88-2.82 0-4.25 1.43-4.25 4.25 0 0.21 0.01 0.42 0.04 0.63-0.33 0.21-0.56 0.64-0.56 1.15 0 0.74 0.47 1.32 1.06 1.32 0.02 0 0.04 0 0.06-0.01 0.19 1.17 0.72 2.17 1.45 2.84v0.57h-1.51c-1.43 0-2.8 0.63-3.74 1.69C9.285 23.28 8.635 21.35 8.635 19.34zM21.455 18.08v-0.01c0.216-0.287 0.46-0.011 0.46 0.39 0 0.31-0.15 0.51-0.26 0.54v-0.11C21.595 18.59 21.535 18.34 21.455 18.08zM14.365 18.01c0 0.001-0.08 0.43-0.09 0.5-0.03 0.13-0.05 0.27-0.07 0.41v0.06c0 0.01 0 0.01 0 0.02-0.11-0.03-0.26-0.24-0.26-0.54C13.945 18.14 14.167 17.763 14.365 18.01z" fill="#b2fcfb" data-fill-palette-color="accent"></path><path d="M60.125 5.64c-1.73 0-3.14 1.41-3.14 3.14v2.56c-1.41 0.11-2.53 1.29-2.53 2.74V55.19c0 0.05 0.01 0.11 0.02 0.16 0 0 0 0 0 0.01-0.05 0.2-0.02 0.41 0.1 0.59l4.92 7.62c0.14 0.22 0.38 0.34 0.63 0.34 0.26 0 0.49-0.12 0.63-0.34l4.92-7.62c0.11-0.17 0.15-0.39 0.1-0.58 0-0.01 0-0.01 0-0.01C65.795 55.31 65.805 55.25 65.805 55.19V14.08c0-1.45-1.13-2.63-2.54-2.74v-2.56C63.265 7.05 61.855 5.64 60.125 5.64zM58.485 8.78c0-0.9 0.74-1.64 1.64-1.64 0.91 0 1.64 0.74 1.64 1.64v2.55h-3.28V8.78zM61.315 12.83v13.57c0 0.65-0.53 1.18-1.19 1.18-0.65 0-1.18-0.53-1.18-1.18V12.83H61.315zM61.486 59.173h-2.718L56.685 55.94h6.89L61.486 59.173zM64.305 14.08V54.44h-8.35V14.08c0-0.61 0.44-1.13 1.03-1.22h0.46v13.54c0 1.47 1.2 2.68 2.68 2.68 1.48 0 2.69-1.21 2.69-2.68V12.85c0.25 0.01 0.39 0.01 0.45 0.01C63.855 12.95 64.305 13.46 64.305 14.08z" fill="#b2fcfb" data-fill-palette-color="accent"></path></g></svg></g></g></svg></g><defs></defs></svg><rect width="395.52" height="247.2" fill="none" stroke="none" visibility="hidden"></rect></g></svg></g></svg>